<svg width="404" height="403" viewBox="0 0 404 403" fill="none" xmlns="http://www.w3.org/2000/svg">
<g clip-path="url(#clip0_1_2022)">
<g opacity="0.25">
<path d="M165.693 199.336C165.693 199.279 165.701 199.223 165.701 199.167C165.701 199.126 165.701 199.086 165.705 199.046C165.701 199.142 165.697 199.239 165.693 199.34V199.336Z" fill="#E1E1E1"/>
<path d="M368.354 306.933H328.147L321.058 334.631C318.334 345.274 308.742 352.722 297.761 352.722H115.415C104.421 352.722 94.834 345.274 92.1137 334.631L76.5902 273.963C76.0502 282.797 72.2499 290.752 66.3701 296.636C60.0067 303 51.2254 306.929 41.5211 306.929H35.6494C25.9452 306.929 17.1598 310.862 10.8004 317.221C4.43706 323.577 0.507812 332.362 0.507812 342.066C0.507812 361.475 16.245 377.212 35.6534 377.212H368.362C378.066 377.212 386.852 373.279 393.211 366.919C399.575 360.556 403.504 351.775 403.504 342.07C403.504 322.662 387.767 306.933 368.358 306.933H368.354Z" fill="#E1E1E1"/>
<path d="M166.508 192.638C166.52 192.582 166.532 192.525 166.544 192.469C166.548 192.445 166.552 192.416 166.56 192.392C166.544 192.473 166.524 192.557 166.508 192.638Z" fill="#E1E1E1"/>
<path d="M368.354 166.358H334.325C314.917 166.358 299.187 150.625 299.187 131.213C299.187 129.883 299.268 128.569 299.413 127.275H251.517L237.798 139.45C234.804 142.106 230.073 139.982 230.073 135.976V127.275H215.122C210.024 127.275 205.889 123.141 205.889 118.043V64.3188C205.889 59.2208 210.024 55.0861 215.122 55.0861H308.984C314.082 55.0861 318.217 59.2208 318.217 64.3188V99.9883C323.045 97.4938 328.518 96.0752 334.329 96.0752H368.358C378.063 96.0752 386.848 92.1419 393.207 85.7826C399.571 79.4192 403.5 70.6378 403.5 60.9336C403.5 41.5251 387.763 25.788 368.354 25.788H35.6456C25.9414 25.788 17.156 29.7212 10.7966 36.0806C4.43328 42.4399 0.5 51.2253 0.5 60.9296C0.5 80.338 16.2371 96.0752 35.6456 96.0752H73.3302C92.7386 96.0752 108.476 111.808 108.476 131.213C108.476 140.917 104.543 149.706 98.1832 156.062C91.8198 162.425 83.0384 166.354 73.3342 166.354H35.6497C25.9454 166.354 17.16 170.288 10.8007 176.647C4.43731 183.002 0.50806 191.792 0.50806 201.496C0.50806 220.904 16.2452 236.634 35.6537 236.634H41.5254C54.0345 236.634 65.0122 243.178 71.2386 253.024L68.3853 241.868L64.2143 225.571H57.0772C50.871 225.571 45.8375 220.538 45.8375 214.332V187.56C45.8375 181.358 50.8669 176.321 57.0772 176.321H170.203L129.613 108.629C127.316 104.788 128.561 99.815 132.398 97.5139L149.836 87.0601C153.672 84.763 158.649 86.0042 160.946 89.8448L203.116 160.172C203.153 160.172 203.189 160.172 203.225 160.164C203.713 160.124 204.2 160.092 204.692 160.072C204.821 160.068 204.946 160.064 205.075 160.055C205.542 160.039 206.01 160.027 206.477 160.027C206.514 160.027 206.554 160.027 206.59 160.027C206.727 160.027 206.86 160.031 206.997 160.035C207.235 160.035 207.473 160.039 207.71 160.047C207.892 160.051 208.073 160.06 208.255 160.068C208.456 160.076 208.658 160.084 208.859 160.096C209.044 160.108 209.23 160.12 209.419 160.132C209.613 160.144 209.81 160.16 210.004 160.176C210.189 160.192 210.374 160.209 210.56 160.225C210.753 160.245 210.951 160.265 211.144 160.285C211.325 160.305 211.507 160.325 211.688 160.346C211.898 160.37 212.107 160.402 212.317 160.43C212.478 160.454 212.643 160.475 212.804 160.499C213.155 160.551 213.506 160.612 213.852 160.672C214.009 160.7 214.171 160.733 214.328 160.765C214.537 160.805 214.743 160.845 214.952 160.886C215.122 160.922 215.295 160.958 215.464 160.998C215.658 161.043 215.851 161.083 216.045 161.131C216.218 161.172 216.387 161.212 216.556 161.256C216.75 161.305 216.939 161.353 217.133 161.406C217.298 161.45 217.467 161.494 217.632 161.543C217.834 161.599 218.031 161.655 218.229 161.716C218.382 161.76 218.539 161.804 218.692 161.853C218.954 161.933 219.212 162.018 219.47 162.103C219.635 162.155 219.796 162.212 219.958 162.268C220.216 162.357 220.478 162.449 220.731 162.542C220.872 162.594 221.014 162.651 221.159 162.703C221.36 162.78 221.562 162.856 221.763 162.937C221.912 162.997 222.057 163.058 222.206 163.118C222.4 163.199 222.593 163.279 222.783 163.36C222.928 163.425 223.073 163.485 223.218 163.549C223.415 163.638 223.613 163.727 223.81 163.82C223.943 163.88 224.076 163.944 224.209 164.005C224.439 164.114 224.669 164.227 224.894 164.343C224.991 164.392 225.088 164.436 225.185 164.488C225.503 164.654 225.821 164.819 226.136 164.992C226.22 165.037 226.305 165.085 226.39 165.133C226.623 165.262 226.857 165.395 227.091 165.528C227.204 165.593 227.312 165.657 227.421 165.726C227.627 165.847 227.832 165.972 228.034 166.096C228.147 166.165 228.259 166.238 228.372 166.306C228.578 166.435 228.779 166.568 228.985 166.697C229.086 166.765 229.19 166.83 229.291 166.898C229.517 167.052 229.743 167.205 229.968 167.362C230.041 167.414 230.113 167.463 230.19 167.515C230.794 167.942 231.387 168.385 231.963 168.845C232.015 168.885 232.068 168.93 232.12 168.974C232.354 169.163 232.588 169.353 232.817 169.542C232.886 169.599 232.954 169.659 233.023 169.715C233.241 169.901 233.458 170.086 233.672 170.276C233.736 170.332 233.801 170.388 233.865 170.449C234.095 170.654 234.321 170.86 234.546 171.069C234.591 171.11 234.631 171.15 234.675 171.186C235.501 171.964 236.295 172.778 237.053 173.624C237.069 173.645 237.085 173.661 237.101 173.681C237.335 173.943 237.569 174.209 237.794 174.479C237.819 174.507 237.843 174.535 237.867 174.563C238.097 174.833 238.322 175.108 238.544 175.386C238.556 175.402 238.568 175.414 238.58 175.43C238.818 175.728 239.052 176.026 239.282 176.333H356.111C362.317 176.333 367.351 181.366 367.351 187.572V214.344C367.351 220.546 362.321 225.583 356.111 225.583H348.974L346.141 236.646H368.362C378.067 236.646 386.852 232.712 393.211 226.353C399.575 219.998 403.504 211.212 403.504 201.508C403.504 182.096 387.767 166.362 368.358 166.362L368.354 166.358Z" fill="#E1E1E1"/>
<path d="M167.322 189.374C167.343 189.305 167.363 189.241 167.383 189.176C167.391 189.152 167.395 189.128 167.403 189.108C167.375 189.196 167.347 189.285 167.318 189.378L167.322 189.374Z" fill="#E1E1E1"/>
<path d="M166.85 191.147C166.85 191.147 166.854 191.131 166.858 191.119C166.878 191.034 166.898 190.949 166.918 190.865C166.894 190.957 166.874 191.05 166.854 191.143L166.85 191.147Z" fill="#E1E1E1"/>
</g>
<g opacity="0.5">
<path d="M348.966 225.579L344.795 241.877L321.058 334.635C318.334 345.278 308.742 352.726 297.761 352.726H115.415C104.421 352.726 94.8341 345.278 92.1138 334.635L68.3771 241.877L64.2061 225.579H173.899C181.366 235.481 193.227 241.881 206.586 241.881C219.945 241.881 231.806 235.481 239.273 225.579H348.966Z" fill="#E1E1E1"/>
</g>
<g opacity="0.5">
<path d="M205.961 241.873H68.3771L64.2061 225.575H173.899C181.249 235.32 192.856 241.675 205.961 241.873Z" fill="#E1E1E1"/>
</g>
<g opacity="0.5">
<path d="M348.966 225.579L344.795 241.877H207.211C220.316 241.679 231.923 235.328 239.274 225.579H348.966Z" fill="#E1E1E1"/>
</g>
<g opacity="0.5">
<path d="M209.436 252.891H203.737C199.362 252.891 195.814 256.438 195.814 260.814V321.356C195.814 325.732 199.362 329.279 203.737 329.279H209.436C213.812 329.279 217.359 325.732 217.359 321.356V260.814C217.359 256.438 213.812 252.891 209.436 252.891Z" fill="#E1E1E1"/>
<path d="M139.133 252.939L133.508 253.853C129.189 254.555 126.256 258.625 126.958 262.944L136.669 322.703C137.371 327.022 141.441 329.954 145.76 329.252L151.385 328.338C155.704 327.636 158.637 323.566 157.935 319.247L148.224 259.488C147.522 255.169 143.452 252.237 139.133 252.939Z" fill="#E1E1E1"/>
<path d="M261.76 328.342L267.385 329.257C271.704 329.958 275.774 327.026 276.476 322.707L286.187 262.948C286.889 258.629 283.956 254.559 279.637 253.857L274.013 252.943C269.694 252.241 265.623 255.173 264.921 259.492L255.21 319.251C254.509 323.57 257.441 327.641 261.76 328.342Z" fill="#E1E1E1"/>
</g>
<path d="M297.76 353.931H115.414C103.864 353.931 93.8013 346.117 90.94 334.929L62.6494 224.366H174.502L174.865 224.846C182.304 234.711 193.645 240.478 205.98 240.664C206.194 240.668 206.395 240.664 206.609 240.664C206.803 240.664 206.992 240.664 207.185 240.664C219.525 240.478 230.866 234.715 238.305 224.846L238.668 224.366H350.52L322.23 334.929C319.368 346.117 309.306 353.927 297.76 353.927V353.931ZM65.7606 226.788L93.2814 334.333C95.8687 344.448 104.968 351.513 115.414 351.513H297.76C308.201 351.513 317.301 344.448 319.888 334.333L347.409 226.788H239.869C231.974 236.96 220.11 242.892 207.226 243.086C206.803 243.094 206.367 243.094 205.936 243.086C193.056 242.892 181.196 236.96 173.297 226.788H65.7606Z" fill="#E1E1E1"/>
<path d="M239.168 338.298H206.586V340.716H239.168V338.298Z" fill="#E1E1E1"/>
<path d="M319.529 338.298H260.715V340.716H319.529V338.298Z" fill="#E1E1E1"/>
<g opacity="0.75">
<path d="M367.339 187.568V214.34C367.339 220.542 362.309 225.579 356.099 225.579H239.27C244.444 218.728 247.507 210.201 247.507 200.956C247.507 191.711 244.44 183.184 239.27 176.333H356.099C362.305 176.333 367.339 181.366 367.339 187.572V187.568Z" fill="#E1E1E1"/>
</g>
<g opacity="0.75">
<path d="M165.662 200.952C165.662 210.197 168.729 218.724 173.899 225.575H57.0697C50.8635 225.575 45.8301 220.542 45.8301 214.335V187.564C45.8301 181.362 50.8595 176.324 57.0697 176.324H173.899C168.725 183.175 165.662 191.703 165.662 200.948V200.952Z" fill="#E1E1E1"/>
</g>
<path d="M356.104 226.788H236.844L238.307 224.85C243.538 217.922 246.302 209.661 246.302 200.956C246.302 192.251 243.538 183.99 238.307 177.062L236.844 175.124H356.104C362.967 175.124 368.552 180.709 368.552 187.572V214.343C368.552 221.207 362.967 226.792 356.104 226.792V226.788ZM241.619 224.37H356.104C361.633 224.37 366.134 219.873 366.134 214.339V187.568C366.134 182.039 361.637 177.538 356.104 177.538H241.619C246.274 184.469 248.72 192.517 248.72 200.952C248.72 209.387 246.274 217.435 241.619 224.366V224.37Z" fill="#E1E1E1"/>
<path d="M176.325 226.788H57.0688C50.2057 226.788 44.6201 221.203 44.6201 214.34V187.568C44.6201 180.705 50.2017 175.12 57.0688 175.12H176.329L174.866 177.058C169.635 183.986 166.87 192.247 166.87 200.952C166.87 209.657 169.635 217.918 174.866 224.846L176.329 226.784L176.325 226.788ZM57.0648 177.542C51.5356 177.542 47.0341 182.039 47.0341 187.572V214.344C47.0341 219.873 51.5316 224.374 57.0648 224.374H171.549C166.894 217.443 164.448 209.395 164.448 200.96C164.448 192.525 166.894 184.477 171.549 177.546H57.0688L57.0648 177.542Z" fill="#E1E1E1"/>
<g opacity="0.5">
<path d="M203.106 160.176C191.178 161.18 180.708 167.297 173.897 176.329C173.196 177.26 172.535 178.215 171.914 179.202L129.599 108.637C127.302 104.796 128.547 99.8231 132.384 97.522L149.822 87.0681C153.658 84.771 158.635 86.0123 160.932 89.8529L203.102 160.18L203.106 160.176Z" fill="#E1E1E1"/>
</g>
<path d="M171.897 181.515L128.57 109.261C125.935 104.861 127.369 99.1299 131.77 96.4862L149.208 86.0324C151.34 84.7549 153.842 84.3841 156.256 84.9846C158.67 85.5891 160.701 87.0963 161.979 89.2322L205.148 161.22L203.214 161.381C192.002 162.324 181.669 168.039 174.867 177.058C174.19 177.957 173.541 178.896 172.944 179.847L171.897 181.515ZM153.979 87.1205C152.746 87.1205 151.533 87.455 150.449 88.1038L133.011 98.5576C129.755 100.512 128.691 104.756 130.642 108.016L171.969 176.937C172.284 176.486 172.606 176.038 172.936 175.603C179.763 166.548 189.947 160.636 201.102 159.177L159.903 90.4735C158.956 88.8937 157.453 87.7774 155.668 87.33C155.108 87.189 154.544 87.1205 153.983 87.1205H153.979Z" fill="#E1E1E1"/>
<g opacity="0.5">
<path d="M247.511 200.952C247.511 210.197 244.445 218.724 239.274 225.575C231.923 235.32 220.317 241.675 207.211 241.872C207.002 241.877 206.796 241.877 206.587 241.877C206.377 241.877 206.172 241.877 205.962 241.872C192.857 241.675 181.25 235.324 173.899 225.575C168.725 218.724 165.662 210.197 165.662 200.952C165.662 192.96 167.951 185.505 171.921 179.202C172.541 178.215 173.202 177.26 173.903 176.329C180.714 167.297 191.188 161.176 203.113 160.176C204.257 160.08 205.418 160.031 206.591 160.031C219.95 160.031 231.811 166.431 239.278 176.333C244.453 183.184 247.515 191.711 247.515 200.956L247.511 200.952Z" fill="#E1E1E1"/>
</g>
<g opacity="0.5">
<path d="M227.651 200.952C227.651 212.587 218.221 222.017 206.586 222.017C194.952 222.017 186.049 213.106 185.546 201.927C185.53 201.605 185.521 201.278 185.521 200.952C185.521 189.317 194.952 179.887 206.586 179.887C210.121 179.887 213.449 180.754 216.371 182.297C223.077 185.819 227.651 192.856 227.651 200.952Z" fill="#E1E1E1"/>
</g>
<path d="M206.586 223.23C194.303 223.23 184.312 213.239 184.312 200.956C184.312 188.672 194.303 178.682 206.586 178.682C218.87 178.682 228.86 188.672 228.86 200.956C228.86 213.239 218.87 223.23 206.586 223.23ZM206.586 181.1C195.637 181.1 186.73 190.006 186.73 200.956C186.73 211.905 195.637 220.812 206.586 220.812C217.536 220.812 226.442 211.905 226.442 200.956C226.442 190.006 217.536 181.1 206.586 181.1Z" fill="#E1E1E1"/>
<path d="M206.587 243.086C183.354 243.086 164.453 224.185 164.453 200.952C164.453 177.719 183.354 158.818 206.587 158.818C229.82 158.818 248.72 177.719 248.72 200.952C248.72 224.185 229.82 243.086 206.587 243.086ZM206.587 161.24C184.688 161.24 166.871 179.057 166.871 200.956C166.871 222.855 184.688 240.672 206.587 240.672C228.486 240.672 246.302 222.855 246.302 200.956C246.302 179.057 228.486 161.24 206.587 161.24Z" fill="#E1E1E1"/>
<path d="M150.187 212.163H80.0928V214.581H150.187V212.163Z" fill="#E1E1E1"/>
<path d="M284.498 212.163H260.713V214.581H284.498V212.163Z" fill="#E1E1E1"/>
<g opacity="0.5">
<path d="M308.982 55.082H215.119C210.021 55.082 205.887 59.2168 205.887 64.3148V118.039C205.887 123.137 210.021 127.271 215.119 127.271H230.071V135.972C230.071 139.978 234.798 142.102 237.796 139.446L251.514 127.271H308.978C314.076 127.271 318.211 123.137 318.211 118.039V64.3148C318.211 59.2168 314.076 55.082 308.978 55.082H308.982Z" fill="#E1E1E1"/>
</g>
<path d="M234.736 141.84C233.921 141.84 233.099 141.667 232.314 141.316C230.186 140.357 228.86 138.314 228.86 135.98V128.488H215.118C209.359 128.488 204.676 123.806 204.676 118.047V64.3228C204.676 58.564 209.359 53.8811 215.118 53.8811H308.98C314.739 53.8811 319.422 58.564 319.422 64.3228V118.047C319.422 123.806 314.739 128.488 308.98 128.488H251.976L238.6 140.357C237.496 141.336 236.13 141.844 234.74 141.844L234.736 141.84ZM215.118 56.291C210.693 56.291 207.094 59.8898 207.094 64.3148V118.039C207.094 122.464 210.693 126.062 215.118 126.062H231.278V135.972C231.278 137.363 232.035 138.535 233.305 139.104C234.574 139.672 235.953 139.462 236.992 138.539L251.057 126.062H308.98C313.405 126.062 317.004 122.464 317.004 118.039V64.3148C317.004 59.8898 313.405 56.291 308.98 56.291H215.118Z" fill="#E1E1E1"/>
<path d="M277.841 94.1569C277.841 100.274 276.467 104.998 273.718 108.314C270.97 111.635 267.097 113.291 262.096 113.291C257.094 113.291 253.153 111.623 250.397 108.282C247.636 104.941 246.258 100.234 246.258 94.1569V85.8793C246.258 79.7618 247.632 75.0426 250.38 71.7219C253.129 68.4052 257.014 66.7449 262.031 66.7449C267.049 66.7449 270.942 68.4133 273.698 71.7542C276.459 75.095 277.837 79.8142 277.837 85.9116V94.1569H277.841ZM267.355 84.5414C267.355 81.2851 266.928 78.851 266.077 77.243C265.227 75.6351 263.877 74.8331 262.031 74.8331C260.185 74.8331 258.916 75.5786 258.094 77.0738C257.276 78.5689 256.833 80.8297 256.772 83.8563V95.4304C256.772 98.8116 257.195 101.286 258.046 102.85C258.896 104.417 260.246 105.199 262.092 105.199C263.937 105.199 265.191 104.437 266.045 102.91C266.895 101.387 267.331 98.9929 267.351 95.7367V84.5333L267.355 84.5414Z" fill="#E1E1E1"/>
<path d="M151.637 166.612C151.613 166.612 151.589 166.612 151.565 166.612C150.763 166.564 149.957 166.515 149.147 166.463C148.482 166.423 147.974 165.847 148.018 165.182C148.063 164.517 148.639 164.013 149.3 164.053C150.106 164.106 150.908 164.154 151.71 164.202C152.375 164.243 152.883 164.815 152.842 165.484C152.802 166.125 152.27 166.62 151.637 166.62V166.612Z" fill="#E1E1E1"/>
<path d="M144.327 166.117C144.294 166.117 144.262 166.117 144.23 166.117C142.449 165.976 140.837 165.822 139.305 165.657C138.64 165.585 138.161 164.988 138.237 164.323C138.31 163.658 138.906 163.179 139.571 163.255C141.078 163.421 142.666 163.57 144.423 163.711C145.088 163.763 145.584 164.347 145.531 165.012C145.483 165.645 144.951 166.125 144.327 166.125V166.117ZM134.57 165.024C134.509 165.024 134.445 165.02 134.385 165.008C132.68 164.746 131.032 164.448 129.484 164.118C128.831 163.977 128.416 163.336 128.553 162.683C128.69 162.03 129.335 161.615 129.988 161.752C131.487 162.074 133.091 162.365 134.747 162.619C135.408 162.719 135.859 163.336 135.759 163.997C135.666 164.593 135.15 165.02 134.566 165.02L134.57 165.024ZM124.978 162.949C124.866 162.949 124.753 162.933 124.64 162.901C122.992 162.417 121.396 161.873 119.893 161.281C119.272 161.035 118.966 160.334 119.212 159.713C119.457 159.092 120.159 158.786 120.779 159.032C122.214 159.596 123.741 160.12 125.321 160.579C125.962 160.769 126.329 161.438 126.143 162.079C125.99 162.606 125.506 162.949 124.983 162.949H124.978ZM115.871 159.33C115.681 159.33 115.492 159.286 115.311 159.193C113.989 158.5 112.703 157.742 111.49 156.936C111.317 156.823 111.148 156.707 110.978 156.59C110.43 156.211 110.289 155.457 110.668 154.909C111.047 154.361 111.8 154.22 112.348 154.599C112.506 154.708 112.667 154.816 112.828 154.921C113.969 155.679 115.182 156.396 116.431 157.049C117.023 157.359 117.253 158.089 116.943 158.681C116.725 159.092 116.306 159.33 115.871 159.33ZM107.823 153.753C107.533 153.753 107.242 153.648 107.013 153.442C105.784 152.33 104.595 151.117 103.474 149.839C103.035 149.336 103.088 148.574 103.591 148.135C104.095 147.695 104.857 147.748 105.296 148.252C106.352 149.461 107.472 150.605 108.633 151.653C109.129 152.1 109.165 152.866 108.717 153.362C108.48 153.628 108.149 153.761 107.819 153.761L107.823 153.753ZM101.375 146.378C100.992 146.378 100.613 146.196 100.379 145.854C99.4202 144.467 98.5377 143.017 97.7518 141.546C97.4375 140.957 97.6591 140.224 98.2475 139.909C98.8359 139.595 99.5693 139.817 99.8837 140.405C100.625 141.796 101.459 143.166 102.366 144.475C102.745 145.024 102.608 145.777 102.06 146.156C101.85 146.301 101.613 146.37 101.375 146.37V146.378ZM96.7685 137.729C96.2849 137.729 95.8255 137.435 95.6401 136.955C95.0195 135.356 94.5117 133.727 94.1208 132.119C93.9636 131.471 94.3626 130.818 95.0114 130.661C95.6643 130.503 96.3131 130.902 96.4703 131.551C96.833 133.054 97.3125 134.578 97.8929 136.077C98.1347 136.702 97.8244 137.399 97.2037 137.641C97.0587 137.697 96.9136 137.721 96.7685 137.721V137.729ZM94.2094 130.242C93.9958 130.242 93.7823 130.242 93.5687 130.229C92.8997 130.209 92.3758 129.649 92.4 128.98C92.4201 128.327 92.9561 127.811 93.609 127.811C93.4357 127.622 93.3228 127.376 93.2987 127.102C93.2221 126.212 93.1818 125.317 93.1818 124.442C93.1818 123.62 93.2181 122.798 93.2825 121.996C93.339 121.331 93.9233 120.835 94.5883 120.892C95.2532 120.948 95.7489 121.533 95.6925 122.198C95.632 122.931 95.5998 123.689 95.5998 124.442C95.5998 125.248 95.6361 126.074 95.7086 126.897C95.7368 127.231 95.628 127.549 95.4225 127.783C96.3332 127.723 97.2843 127.602 98.2596 127.416C98.9165 127.292 99.5492 127.723 99.6741 128.376C99.799 129.028 99.3678 129.665 98.715 129.79C97.1473 130.088 95.632 130.242 94.2094 130.242ZM88.7971 129.347C88.6601 129.347 88.5231 129.323 88.3861 129.274C86.8265 128.714 85.2709 127.912 83.7677 126.897C83.2156 126.522 83.0705 125.772 83.4413 125.216C83.8161 124.664 84.5656 124.519 85.1218 124.89C86.4557 125.792 87.83 126.502 89.2002 126.993C89.8288 127.219 90.1553 127.912 89.9296 128.541C89.7523 129.033 89.2888 129.343 88.7931 129.343L88.7971 129.347ZM103.216 128.521C102.717 128.521 102.249 128.206 102.076 127.711C101.858 127.082 102.189 126.393 102.822 126.171C104.474 125.595 105.868 124.97 107.081 124.261C107.658 123.922 108.399 124.12 108.734 124.696C109.072 125.273 108.875 126.014 108.298 126.349C106.948 127.138 105.417 127.828 103.615 128.456C103.482 128.501 103.349 128.525 103.216 128.525V128.521ZM80.6686 123.987C80.3624 123.987 80.0561 123.87 79.8223 123.64C78.6818 122.524 77.5494 121.255 76.4573 119.86C76.0462 119.336 76.1349 118.575 76.6588 118.164C77.1827 117.749 77.9444 117.841 78.3554 118.365C79.3871 119.675 80.451 120.872 81.5149 121.916C81.9905 122.383 81.9985 123.149 81.5311 123.624C81.2933 123.866 80.983 123.987 80.6686 123.987ZM111.478 123.431C111.2 123.431 110.918 123.334 110.688 123.137C110.184 122.701 110.128 121.936 110.563 121.432L110.648 121.331C111.555 120.251 112.211 118.966 112.546 117.611C112.707 116.963 113.364 116.568 114.013 116.729C114.662 116.89 115.057 117.547 114.895 118.196C114.468 119.905 113.642 121.525 112.502 122.883L112.393 123.012C112.155 123.29 111.817 123.431 111.478 123.431ZM95.3701 118.49C95.2532 118.49 95.1323 118.474 95.0114 118.434C94.3747 118.236 94.016 117.559 94.2135 116.922C94.7535 115.185 95.5353 113.594 96.5388 112.187C96.9257 111.643 97.6833 111.518 98.2273 111.905C98.7714 112.292 98.8963 113.05 98.5094 113.594C97.6551 114.786 96.9901 116.149 96.5267 117.64C96.3655 118.16 95.8899 118.49 95.3741 118.49H95.3701ZM74.5672 116.322C74.1682 116.322 73.7814 116.124 73.5476 115.766C72.6852 114.428 71.8308 112.981 71.0047 111.466C70.6863 110.881 70.8999 110.144 71.4883 109.826C72.0726 109.507 72.8101 109.721 73.1285 110.309C73.9264 111.772 74.7526 113.166 75.5828 114.456C75.9455 115.016 75.7802 115.766 75.2201 116.128C75.0186 116.257 74.7929 116.322 74.5672 116.322ZM113.557 114.283C113.062 114.283 112.598 113.976 112.421 113.485C112.328 113.227 112.211 112.973 112.082 112.731C111.583 111.8 110.825 111.035 109.834 110.458C109.257 110.124 109.06 109.382 109.394 108.806C109.729 108.23 110.47 108.032 111.047 108.367C112.413 109.161 113.505 110.273 114.21 111.583C114.396 111.929 114.557 112.288 114.69 112.659C114.92 113.287 114.593 113.98 113.969 114.206C113.832 114.255 113.694 114.279 113.557 114.279V114.283ZM101.077 110.765C100.666 110.765 100.263 110.555 100.037 110.176C99.6943 109.604 99.8797 108.862 100.452 108.52C100.883 108.262 101.326 108.032 101.782 107.839C102.987 107.319 104.349 107.033 105.719 107.013C106.388 107.013 106.936 107.536 106.944 108.205C106.952 108.874 106.42 109.423 105.751 109.431C104.696 109.443 103.656 109.66 102.741 110.055C102.386 110.208 102.032 110.39 101.693 110.595C101.5 110.712 101.286 110.769 101.073 110.769L101.077 110.765ZM69.8441 107.718C69.3927 107.718 68.9575 107.464 68.7519 107.025C68.0668 105.574 67.3898 104.047 66.7369 102.483C66.479 101.866 66.7732 101.157 67.3898 100.903C68.0064 100.645 68.7157 100.939 68.9695 101.556C69.6063 103.083 70.2672 104.578 70.9362 105.993C71.2223 106.598 70.9644 107.319 70.3599 107.601C70.1947 107.682 70.0174 107.718 69.8441 107.718ZM66.0639 98.6544C65.5723 98.6544 65.1088 98.3521 64.9275 97.8645C64.3673 96.3411 63.8192 94.7654 63.3034 93.1816C63.0978 92.5489 63.4444 91.8638 64.0771 91.6583C64.7098 91.4487 65.3949 91.7993 65.6005 92.4321C66.1082 93.9876 66.6442 95.5352 67.1963 97.0303C67.4261 97.6549 67.1077 98.3521 66.479 98.5818C66.342 98.6342 66.2009 98.6584 66.0599 98.6584L66.0639 98.6544Z" fill="#E1E1E1"/>
<path d="M63.0056 89.2927C62.4817 89.2927 61.9981 88.9461 61.8449 88.4182C61.6112 87.6041 61.3936 86.8183 61.1921 86.0687C61.0188 85.4239 61.4016 84.7589 62.0464 84.5897C62.6912 84.4164 63.3522 84.7992 63.5254 85.444C63.7229 86.1775 63.9365 86.9512 64.1662 87.7492C64.3516 88.39 63.9808 89.0589 63.3401 89.2443C63.2272 89.2765 63.1144 89.2927 63.0056 89.2927Z" fill="#E1E1E1"/>
<path d="M68.4691 60.6135C76.7414 58.0733 82.4671 52.8215 81.2578 48.8832C80.0485 44.9449 72.3621 43.8115 64.0897 46.3517C55.8174 48.8918 50.0917 54.1437 51.301 58.082C52.5103 62.0203 60.1967 63.1537 68.4691 60.6135Z" fill="#E1E1E1"/>
<g opacity="0.5">
<path d="M62.8364 78.3048C67.9412 76.1934 69.3983 67.9993 66.0909 60.0028C62.7835 52.0062 55.9641 47.2353 50.8593 49.3466C45.7545 51.458 44.2974 59.6521 47.6048 67.6486C50.9121 75.6452 57.7316 80.4161 62.8364 78.3048Z" fill="#E1E1E1"/>
</g>
<path d="M60.2579 80.0237C58.1864 80.0237 55.9901 79.258 53.8502 77.7629C50.7874 75.6189 48.1719 72.1934 46.4833 68.115C44.7947 64.0367 44.2265 59.7649 44.8834 56.0815C45.5725 52.2046 47.5311 49.4158 50.3924 48.231C56.107 45.8694 63.6471 50.9432 67.2056 59.5432C68.8941 63.6216 69.4624 67.8934 68.8055 71.5768C68.1164 75.4537 66.1578 78.2424 63.2965 79.4272C62.3293 79.8262 61.3097 80.0237 60.2579 80.0237ZM53.4673 50.0485C52.7258 50.0485 52.0044 50.1856 51.3193 50.4677C49.2439 51.3261 47.8052 53.47 47.2651 56.5046C46.6888 59.7367 47.2047 63.5329 48.72 67.1881C50.2352 70.8433 52.5485 73.8981 55.2365 75.7801C57.7633 77.5493 60.2982 78.049 62.3736 77.1906C64.4491 76.3322 65.8878 74.1882 66.4278 71.1537C67.0041 67.9216 66.4882 64.1253 64.973 60.4701C62.3897 54.2236 57.5981 50.0485 53.4673 50.0485Z" fill="#E1E1E1"/>
<path d="M80.2858 65.759C81.4882 61.8186 75.7533 56.5768 67.4766 54.0511C59.1998 51.5254 51.5154 52.6722 50.313 56.6126C49.1105 60.553 54.8454 65.7948 63.1221 68.3205C71.3989 70.8463 79.0833 69.6994 80.2858 65.759Z" fill="#E1E1E1"/>
<path d="M71.538 70.8716C68.8057 70.8716 65.7872 70.396 62.7687 69.4772C58.5977 68.2037 54.8941 66.221 52.3471 63.8876C49.5624 61.3447 48.43 58.6365 49.1554 56.2588C49.8808 53.8811 52.3351 52.2691 56.0628 51.713C59.4802 51.2052 63.6594 51.6243 67.8304 52.8978C76.8818 55.6583 82.8623 61.4656 81.4437 66.1162C80.7183 68.4939 78.2641 70.1059 74.5363 70.666C73.5893 70.8071 72.5858 70.8756 71.538 70.8756V70.8716ZM59.0772 53.9174C58.1463 53.9174 57.2597 53.9778 56.4215 54.1027C53.7053 54.5057 51.8998 55.5495 51.4686 56.964C51.0374 58.3786 51.9522 60.2525 53.9793 62.1023C56.2683 64.1939 59.6414 65.9912 63.478 67.164C67.3146 68.3327 71.1149 68.7276 74.1817 68.2682C76.8979 67.8652 78.7033 66.8214 79.1346 65.4069C79.997 62.5778 75.2778 57.6935 67.1292 55.207C64.3404 54.3566 61.5638 53.9174 59.0813 53.9174H59.0772Z" fill="#E1E1E1"/>
<path d="M60.3262 80.0035C55.188 80.0035 49.4533 75.2844 46.4872 68.111C44.7986 64.0327 44.2304 59.7609 44.8873 56.0774C45.5764 52.2006 47.535 49.4118 50.3963 48.227C52.3347 47.425 54.5271 47.4411 56.7718 48.2673C58.8271 47.0301 61.2209 45.9742 63.7316 45.2045C72.7789 42.4278 80.984 43.8907 82.4106 48.5373C83.3053 51.455 81.4193 54.804 77.3288 57.7015C80.714 60.4177 82.2414 63.4846 81.4394 66.1121C80.3594 69.6464 75.5113 71.4076 68.9303 70.7345C68.3983 74.962 66.343 78.1618 63.2964 79.4232C62.3493 79.8141 61.3499 80.0035 60.3262 80.0035ZM53.4188 50.0566C52.6813 50.0566 51.9761 50.1896 51.3232 50.4596C49.2478 51.318 47.8091 53.462 47.269 56.5006C46.6928 59.7326 47.2086 63.5289 48.7239 67.1841C51.7706 74.551 57.8961 79.0404 62.3775 77.1866C64.8439 76.167 66.4357 73.2251 66.6372 69.316L66.7057 67.9901L68.0195 68.1795C73.7179 69.0057 78.3927 67.8329 79.1383 65.4029C79.7105 63.5289 77.9494 60.9376 74.5481 58.6445L72.9804 57.5887L74.5965 56.6094C78.5781 54.1954 80.7422 51.3059 80.1095 49.2466C79.2431 46.4216 72.5976 45.0151 64.453 47.5137C61.9262 48.2915 59.5404 49.3675 57.5496 50.6329L57.0096 50.9755L56.4212 50.7216C55.3855 50.2783 54.378 50.0526 53.4269 50.0526L53.4188 50.0566Z" fill="#E1E1E1"/>
</g>
<defs>
<clipPath id="clip0_1_2022">
<rect width="403" height="403" fill="white" transform="translate(0.5)"/>
</clipPath>
</defs>
</svg>
