<svg xmlns="http://www.w3.org/2000/svg" viewBox="0 0 183.07 59.21">
    <title>Skooldio_Logo_Horizontal_Light_temp</title>
    <path d="M30.38,5.68,8.63,18.18a4.61,4.61,0,0,0-2.31,4v25a4.6,4.6,0,0,0,2.31,4L30.38,63.66a4.59,4.59,0,0,0,4.59,0L56.72,51.15a4.6,4.6,0,0,0,2.31-4v-25a4.61,4.61,0,0,0-2.31-4L35,5.68A4.59,4.59,0,0,0,30.38,5.68ZM54.9,50l-20,11.51a4.44,4.44,0,0,1-4.43,0L10.45,50a4.44,4.44,0,0,1-2.23-3.85v-23a4.43,4.43,0,0,1,2.23-3.84l20-11.51a4.44,4.44,0,0,1,4.43,0l20,11.51a4.43,4.43,0,0,1,2.23,3.84v23A4.44,4.44,0,0,1,54.9,50Z" transform="translate(-6.32 -5.06)" fill="#fbaa1b"/>
    <path d="M33.85,32.91a4.58,4.58,0,0,0-2.11,3.64v1.84a2.05,2.05,0,0,0,.95,1.87,2.1,2.1,0,0,0,2.1-.12l16.36-9.4a2,2,0,0,0,1,.3,2,2,0,1,0-2-2s0,0,0,.06l-16.36,9.4a.56.56,0,0,1-.21.09.81.81,0,0,1,0-.22V36.56a2.68,2.68,0,0,1,1.18-2L51,25.2a2.05,2.05,0,0,0,1.14-1.75A2,2,0,0,0,51,21.7L34.79,12.36a4.62,4.62,0,0,0-4.22,0L14.33,21.7a4.57,4.57,0,0,0-2.11,3.64v7.44a4.59,4.59,0,0,0,2.11,3.64l16.24,9.34a4.62,4.62,0,0,0,4.22,0L51,36.42l.2-.09a.61.61,0,0,1,0,.22V44a2.7,2.7,0,0,1-1.17,2L33.85,55.36a2.76,2.76,0,0,1-2.35,0L15.27,46a2.7,2.7,0,0,1-1.17-2V42.16a.61.61,0,0,1,0-.22l.2.09,15.44,8.88a2,2,0,1,0,2-2.12,2,2,0,0,0-1.2.41L15.27,40.41a2.07,2.07,0,0,0-2.1-.11,2.07,2.07,0,0,0-.95,1.86V44a4.59,4.59,0,0,0,2.11,3.64L30.57,57a4.31,4.31,0,0,0,2.11.51A4.25,4.25,0,0,0,34.79,57L51,47.64A4.59,4.59,0,0,0,53.13,44V36.55a1.93,1.93,0,0,0-3.05-1.75L33.85,44.13a2.74,2.74,0,0,1-2.34,0L15.27,34.8a2.71,2.71,0,0,1-1.17-2V25.33a2.73,2.73,0,0,1,1.17-2L31.51,14a2.74,2.74,0,0,1,2.34,0l16.23,9.33a.59.59,0,0,1,.18.14.84.84,0,0,1-.18.13Z" transform="translate(-6.32 -5.06)" fill="#4b4b4b"/>
    <path d="M82.2,30.23a.9.9,0,0,1-.62.23H79.43a1.39,1.39,0,0,1-.77-.19,1.57,1.57,0,0,1-.49-.55,3.8,3.8,0,0,0-1.51-1.37A5.71,5.71,0,0,0,74,27.83a5.4,5.4,0,0,0-2.8.67,2,2,0,0,0-1.14,1.8,1.85,1.85,0,0,0,.54,1.42,4.1,4.1,0,0,0,1.68.84c.75.22,2,.52,3.72.88a12.27,12.27,0,0,1,5.37,2.23A4.93,4.93,0,0,1,83,39.61,5.35,5.35,0,0,1,82,42.89a7.14,7.14,0,0,1-3.09,2.27,13.52,13.52,0,0,1-9,.09,7.87,7.87,0,0,1-3.23-2.09,4.87,4.87,0,0,1-1.32-3.09.7.7,0,0,1,.21-.6.9.9,0,0,1,.62-.23h2.15a1.45,1.45,0,0,1,.78.18,1.36,1.36,0,0,1,.48.55,4,4,0,0,0,1.52,1.6,6.2,6.2,0,0,0,3.09.6,7.84,7.84,0,0,0,3.38-.64,2.06,2.06,0,0,0,1.35-1.92,1.47,1.47,0,0,0-.52-1.18,4.38,4.38,0,0,0-1.47-.73c-.64-.19-1.6-.44-2.89-.75-.51-.1-1.18-.25-2-.45a10.38,10.38,0,0,1-4.66-2.17,5.35,5.35,0,0,1-1.43-4A5.34,5.34,0,0,1,67,27.07a7,7,0,0,1,2.91-2.24A10.13,10.13,0,0,1,74,24a10.61,10.61,0,0,1,4.47.87,7.21,7.21,0,0,1,2.87,2.18,4.87,4.87,0,0,1,1.08,2.56.72.72,0,0,1-.21.6" transform="translate(-6.32 -5.06)" fill="#4b4b4b"/>
    <path d="M90.25,44.86a.75.75,0,0,1-.25.57.77.77,0,0,1-.58.25H87.08a.77.77,0,0,1-.58-.25.75.75,0,0,1-.25-.57v-20a.77.77,0,0,1,.25-.58.8.8,0,0,1,.58-.24h2.34a.8.8,0,0,1,.58.24.77.77,0,0,1,.25.58v9.61l5.13-4.12A6.18,6.18,0,0,1,96,30a1.22,1.22,0,0,1,.61-.14h3.14a.73.73,0,0,1,.52.22.7.7,0,0,1,.21.52.81.81,0,0,1-.33.61L93,36.89l7.84,7.48a.82.82,0,0,1,.31.58.73.73,0,0,1-.74.73h-3a1.93,1.93,0,0,1-1.26-.52l-5.87-5.55Z" transform="translate(-6.32 -5.06)" fill="#4b4b4b"/>
    <path d="M107,33.9a3.29,3.29,0,0,0-1.22,2.47c0,.21,0,.66,0,1.38s0,1.17,0,1.37A3.29,3.29,0,0,0,107,41.59a4.66,4.66,0,0,0,5,0,3.28,3.28,0,0,0,1.21-2.47c0-.41.06-.86.06-1.37s0-1-.06-1.38A3.28,3.28,0,0,0,112,33.9a4.66,4.66,0,0,0-5,0m10.28,3.88c0,.53,0,1-.06,1.52a7.21,7.21,0,0,1-1.14,3.39,6.84,6.84,0,0,1-2.69,2.41,9,9,0,0,1-7.78,0,7,7,0,0,1-2.69-2.41,7.31,7.31,0,0,1-1.13-3.39c0-.24,0-.75,0-1.52s0-1.31,0-1.56a7.35,7.35,0,0,1,1.13-3.42,7.06,7.06,0,0,1,2.69-2.41,9,9,0,0,1,7.78,0,6.91,6.91,0,0,1,2.69,2.41,7.25,7.25,0,0,1,1.14,3.42q.06.73.06,1.56" transform="translate(-6.32 -5.06)" fill="#4b4b4b"/>
    <path d="M125.31,33.9a3.29,3.29,0,0,0-1.22,2.47c0,.21,0,.66,0,1.38s0,1.17,0,1.37a3.29,3.29,0,0,0,1.22,2.47,4.66,4.66,0,0,0,5,0,3.28,3.28,0,0,0,1.21-2.47c0-.41.06-.86.06-1.37s0-1-.06-1.38a3.28,3.28,0,0,0-1.21-2.47,4.66,4.66,0,0,0-5,0m10.28,3.88c0,.53,0,1-.06,1.52a7.21,7.21,0,0,1-1.14,3.39,6.84,6.84,0,0,1-2.69,2.41,9,9,0,0,1-7.78,0,7,7,0,0,1-2.69-2.41,7.31,7.31,0,0,1-1.13-3.39c0-.24,0-.75,0-1.52s0-1.31,0-1.56a7.35,7.35,0,0,1,1.13-3.42,7.06,7.06,0,0,1,2.69-2.41,9,9,0,0,1,7.78,0,6.91,6.91,0,0,1,2.69,2.41,7.25,7.25,0,0,1,1.14,3.42q.06.73.06,1.56" transform="translate(-6.32 -5.06)" fill="#4b4b4b"/>
    <path d="M142.81,45.43a.77.77,0,0,1-.58.25h-2.34a.77.77,0,0,1-.58-.25.75.75,0,0,1-.25-.57v-20a.79.79,0,0,1,.25-.58.8.8,0,0,1,.58-.24h2.34a.8.8,0,0,1,.58.24.79.79,0,0,1,.25.58v20a.75.75,0,0,1-.25.57" transform="translate(-6.32 -5.06)" fill="#4b4b4b"/>
    <path d="M151.59,41.19a3.55,3.55,0,0,0,2.78,1.13,3.53,3.53,0,0,0,3.72-3.41c0-.41.06-.8.06-1.16s0-.76-.06-1.16a3.72,3.72,0,0,0-1.18-2.49,3.65,3.65,0,0,0-2.54-.93,3.72,3.72,0,0,0-2.58.91,4.15,4.15,0,0,0-1.2,2.81c0,.21,0,.49,0,.86a5,5,0,0,0,1,3.44Zm6.5-16.35a.77.77,0,0,1,.25-.58.8.8,0,0,1,.58-.24h2.34a.8.8,0,0,1,.58.24.77.77,0,0,1,.25.58v20a.75.75,0,0,1-.25.57.77.77,0,0,1-.58.25h-2.34a.77.77,0,0,1-.58-.25.75.75,0,0,1-.25-.57v-.71a5.41,5.41,0,0,1-1.78,1.28,6.51,6.51,0,0,1-2.86.55,6.3,6.3,0,0,1-3.52-1,6.91,6.91,0,0,1-2.38-2.62,8.27,8.27,0,0,1-1-3.56l0-1.06,0-1.07a8.31,8.31,0,0,1,1-3.56,7,7,0,0,1,2.38-2.62,6.3,6.3,0,0,1,3.52-1,6.43,6.43,0,0,1,2.83.55,5.78,5.78,0,0,1,1.81,1.28Z" transform="translate(-6.32 -5.06)" fill="#4b4b4b"/>
    <path d="M170.08,45.43a.79.79,0,0,1-.58.25h-2.34a.86.86,0,0,1-.83-.82V30.64a.76.76,0,0,1,.25-.58.79.79,0,0,1,.58-.25h2.34a.83.83,0,0,1,.58.25.79.79,0,0,1,.25.58V44.86a.79.79,0,0,1-.25.57m.15-21.17a.79.79,0,0,1,.25.58v2.38a.77.77,0,0,1-.25.58.78.78,0,0,1-.58.24H167a.82.82,0,0,1-.59-.24.81.81,0,0,1-.25-.58V24.84A.84.84,0,0,1,167,24h2.64a.78.78,0,0,1,.58.24" transform="translate(-6.32 -5.06)" fill="#4b4b4b"/>
    <path d="M179.1,33.9a3.25,3.25,0,0,0-1.21,2.47c0,.21,0,.66,0,1.38s0,1.17,0,1.37a3.25,3.25,0,0,0,1.21,2.47,4.66,4.66,0,0,0,5,0,3.29,3.29,0,0,0,1.22-2.47c0-.41.06-.86.06-1.37s0-1-.06-1.38a3.29,3.29,0,0,0-1.22-2.47,4.66,4.66,0,0,0-5,0m10.28,3.88c0,.53,0,1-.06,1.52a7.21,7.21,0,0,1-1.14,3.39,6.84,6.84,0,0,1-2.69,2.41,9,9,0,0,1-7.77,0A6.84,6.84,0,0,1,175,42.69a7.21,7.21,0,0,1-1.14-3.39c0-.24,0-.75,0-1.52s0-1.31,0-1.56A7.25,7.25,0,0,1,175,32.8a6.91,6.91,0,0,1,2.69-2.41,9,9,0,0,1,7.77,0,6.91,6.91,0,0,1,2.69,2.41,7.25,7.25,0,0,1,1.14,3.42q.06.73.06,1.56" transform="translate(-6.32 -5.06)" fill="#4b4b4b"/>
</svg>