<svg width="91" height="38" viewBox="0 0 91 38" fill="none" xmlns="http://www.w3.org/2000/svg">
<path d="M18.7554 31.6412C17.9656 32.3878 17.5166 33.4318 17.5166 34.5192C17.5166 35.6065 17.9548 36.6398 18.7554 37.3971C18.8257 37.4674 18.9177 37.4999 19.0151 37.4999C19.1125 37.4999 19.199 37.4674 19.2747 37.3971C20.0754 36.6398 20.5136 35.6173 20.5136 34.5192C20.5136 33.421 20.0646 32.3878 19.2747 31.6412C19.1287 31.506 18.9015 31.506 18.7608 31.6412H18.7554Z" fill="#DEF81C"/>
<path d="M23.9167 28.2495C23.722 28.2063 23.5326 28.3199 23.4731 28.5092C23.1756 29.5424 23.3162 30.6731 23.8626 31.5981C24.4198 32.5394 25.3124 33.194 26.3781 33.4374C26.4052 33.4428 26.4322 33.4482 26.4593 33.4482C26.6216 33.4482 26.773 33.34 26.8163 33.1778C27.1192 32.1283 26.9786 31.0301 26.4268 30.0888C25.8804 29.1584 24.9608 28.4876 23.9113 28.2495H23.9167Z" fill="#DEF81C"/>
<path d="M14.1096 28.2494C13.0602 28.4874 12.1405 29.1582 11.5941 30.0887C11.0369 31.03 10.9017 32.1282 11.2046 33.1776C11.2533 33.3399 11.3994 33.4481 11.5617 33.4481C11.5887 33.4481 11.6158 33.4481 11.6428 33.4373C12.7085 33.1939 13.6011 32.5393 14.1583 31.598C14.7047 30.6675 14.8508 29.5423 14.5478 28.5091C14.4937 28.3197 14.299 28.2061 14.1042 28.2494H14.1096Z" fill="#DEF81C"/>
<path d="M20.3685 28.7853C20.2603 28.7421 20.1413 28.7907 20.0926 28.8935C19.8276 29.4615 19.8113 30.1215 20.0439 30.7058C20.282 31.2954 20.7364 31.7498 21.326 31.9879C21.3531 31.9987 21.3801 32.0041 21.4072 32.0041C21.4883 32.0041 21.5695 31.9554 21.6019 31.8797C21.867 31.3008 21.8832 30.6571 21.6506 30.0674C21.418 29.4832 20.9474 29.018 20.3685 28.7853Z" fill="#DEF81C"/>
<path d="M17.9332 28.8984C17.8845 28.7956 17.7655 28.7469 17.6573 28.7902C17.0731 29.0228 16.6078 29.4881 16.3752 30.0723C16.1372 30.662 16.1588 31.3057 16.4239 31.8846C16.4618 31.9657 16.5375 32.009 16.6186 32.009C16.6457 32.009 16.6727 32.009 16.6998 31.9928C17.2894 31.7601 17.7493 31.3057 17.9819 30.7107C18.2145 30.1264 18.1983 29.4664 17.9332 28.8984Z" fill="#DEF81C"/>
<path d="M27.3249 27.0646C27.2113 27.0754 27.1247 27.1782 27.1301 27.2918C27.1626 27.9193 27.4547 28.5089 27.9362 28.9147C28.3581 29.2717 28.872 29.461 29.4184 29.461C29.505 29.461 29.5861 29.461 29.6727 29.4448C29.7863 29.434 29.8728 29.3312 29.8674 29.2176C29.835 28.5793 29.5482 28.0058 29.0614 27.5947C28.5853 27.189 27.9524 26.9942 27.3303 27.0591L27.3249 27.0646Z" fill="#DEF81C"/>
<path d="M10.7062 27.0646C10.0841 26.9943 9.45116 27.1891 8.97511 27.6002C8.48824 28.0113 8.20693 28.5902 8.16906 29.2231C8.16365 29.3367 8.25021 29.4395 8.36381 29.4503C8.45037 29.4611 8.53151 29.4665 8.61807 29.4665C9.15904 29.4665 9.67836 29.2772 10.1003 28.9202C10.5764 28.5144 10.8685 27.9194 10.9064 27.2973C10.9118 27.1837 10.8252 27.0809 10.7116 27.0701L10.7062 27.0646Z" fill="#DEF81C"/>
<path d="M29.012 23.0342C28.0978 22.7854 27.1132 22.9314 26.3072 23.4237C26.1611 23.5157 26.107 23.705 26.1882 23.8565C26.6372 24.6896 27.4162 25.3063 28.3304 25.5497C28.6333 25.6309 28.9363 25.6687 29.2338 25.6687C29.8613 25.6687 30.478 25.4956 31.0298 25.1548C31.1759 25.0628 31.23 24.8735 31.1488 24.722C30.6944 23.8781 29.9317 23.2776 29.0066 23.0288L29.012 23.0342Z" fill="#DEF81C"/>
<path d="M9.69381 25.5556C10.608 25.3121 11.387 24.69 11.836 23.8623C11.9172 23.7109 11.8685 23.5215 11.717 23.4296C10.911 22.9373 9.92643 22.7912 9.01219 23.0401C8.08714 23.2889 7.32978 23.8894 6.86996 24.7333C6.78882 24.8848 6.8375 25.0741 6.98897 25.1661C7.54076 25.5069 8.15746 25.68 8.78499 25.68C9.08793 25.68 9.39087 25.6421 9.6884 25.561L9.69381 25.5556Z" fill="#DEF81C"/>
<path d="M24.5172 26.4972C24.6308 26.4864 24.7173 26.389 24.7119 26.27C24.6849 25.6317 24.4036 25.0529 23.9275 24.6363C23.4515 24.2252 22.8239 24.025 22.2018 24.0845C22.0882 24.0953 22.0017 24.1927 22.0071 24.3117C22.0341 24.9392 22.3208 25.5343 22.7915 25.9454C23.2134 26.3133 23.7382 26.5081 24.29 26.5081C24.3657 26.5081 24.4414 26.5081 24.5172 26.4972Z" fill="#DEF81C"/>
<path d="M15.8294 24.0845C15.2073 24.025 14.5744 24.2252 14.1037 24.6363C13.6223 25.0529 13.3464 25.6317 13.3193 26.27C13.3193 26.3836 13.4005 26.4864 13.5141 26.4972C13.5898 26.5026 13.6656 26.5081 13.7413 26.5081C14.2931 26.5081 14.8178 26.3133 15.2398 25.9454C15.7104 25.5343 15.9971 24.9392 16.0242 24.3117C16.0242 24.1981 15.943 24.1007 15.8294 24.0845Z" fill="#DEF81C"/>
<path d="M32.3608 8.94794C32.7286 9.05614 33.1073 9.11023 33.486 9.11023C34.1784 9.11023 34.8654 8.93172 35.4713 8.58009C36.4234 8.0283 37.0888 7.14111 37.3431 6.06999C37.3918 5.87525 37.2782 5.6805 37.0834 5.6264C36.0285 5.31264 34.9249 5.44247 33.9728 5.99426C33.0316 6.53523 32.3499 7.44946 32.1011 8.50435C32.0524 8.6991 32.166 8.89385 32.3608 8.94794Z" fill="#DEF81C"/>
<path d="M27.2054 6.43761C27.2324 6.43761 27.2649 6.43761 27.2973 6.42679C28.3414 6.16713 29.2502 5.4801 29.7804 4.54422C30.3159 3.59212 30.4349 2.49395 30.1158 1.44448C30.0563 1.25514 29.8615 1.14153 29.6722 1.19022C28.6119 1.4553 27.7301 2.12069 27.1891 3.07279C26.659 4.00866 26.5346 5.13929 26.8537 6.17254C26.9024 6.32942 27.0485 6.43761 27.2108 6.43761H27.2054Z" fill="#DEF81C"/>
<path d="M37.4793 14.1999C36.7327 13.3993 35.7211 12.9503 34.6284 12.9395C34.6175 12.9395 34.6067 12.9395 34.5959 12.9395C33.5302 12.9395 32.4969 13.3776 31.7558 14.1458C31.6206 14.2865 31.6152 14.5137 31.7558 14.6597C32.4915 15.4495 33.5302 15.9094 34.6067 15.9202C34.6175 15.9202 34.6338 15.9202 34.6446 15.9202C35.7211 15.9202 36.7273 15.4928 37.4793 14.7138C37.6145 14.5732 37.6199 14.346 37.4793 14.1999Z" fill="#DEF81C"/>
<path d="M29.5534 7.22784C29.1639 7.72012 28.9962 8.35847 29.0881 8.98058C29.1043 9.08877 29.1963 9.16451 29.3045 9.16451C29.3099 9.16451 29.3153 9.16451 29.3261 9.16451C29.9483 9.11041 30.5325 8.79124 30.922 8.29896C31.3169 7.80127 31.4792 7.17916 31.3872 6.54622C31.371 6.43262 31.2682 6.35148 31.1546 6.3623C30.5217 6.4218 29.9537 6.73015 29.5588 7.22784H29.5534Z" fill="#DEF81C"/>
<path d="M30.3975 11.0303C30.3325 11.1223 30.3488 11.2521 30.4407 11.3279C30.8465 11.6525 31.355 11.8256 31.8689 11.8256C31.9771 11.8256 32.0853 11.8202 32.1935 11.8039C32.821 11.712 33.3728 11.3766 33.7406 10.8572C33.8056 10.7653 33.7893 10.6354 33.6974 10.5597C33.1997 10.1648 32.5776 9.9971 31.9446 10.0891C31.3225 10.181 30.7599 10.5218 30.3975 11.0358V11.0303Z" fill="#DEF81C"/>
<path d="M24.2953 3.90048C24.3332 3.90048 24.3764 3.88966 24.4143 3.86802C24.939 3.52721 25.3069 2.97543 25.4205 2.35872C25.5341 1.7312 25.3935 1.10368 25.0148 0.589757C24.9445 0.497792 24.82 0.470744 24.7227 0.53566C24.1871 0.88188 23.8301 1.41744 23.7165 2.04496C23.6029 2.66166 23.7489 3.30542 24.1222 3.81393C24.1655 3.87343 24.2304 3.90048 24.2953 3.90048Z" fill="#DEF81C"/>
<path d="M34.3354 17.8086C33.7458 17.5976 33.0858 17.6409 32.5286 17.9276C32.4258 17.9817 32.3825 18.1007 32.4312 18.2089C32.6855 18.7823 33.1669 19.2313 33.7566 19.4423C34.0109 19.5343 34.2705 19.5776 34.5302 19.5776C34.8872 19.5776 35.2389 19.491 35.5688 19.3287C35.6716 19.2746 35.7149 19.1556 35.6716 19.0474C35.412 18.4632 34.9413 18.025 34.3463 17.814L34.3354 17.8086Z" fill="#DEF81C"/>
<path d="M22.3046 3.69455C22.0557 2.76949 21.4553 2.00673 20.6168 1.5469C20.4653 1.46576 20.276 1.51444 20.184 1.66051C19.6809 2.47737 19.5402 3.43488 19.7891 4.35994C20.0325 5.27417 20.6492 6.05317 21.4769 6.50758C21.5256 6.53463 21.5797 6.54545 21.6338 6.54545C21.742 6.54545 21.8502 6.49135 21.9097 6.38857C22.4074 5.58252 22.548 4.59796 22.3046 3.68914V3.69455Z" fill="#DEF81C"/>
<path d="M29.0831 18.8313C28.91 18.8313 28.7694 18.9774 28.7639 19.1505C28.7369 20.0918 29.1102 21.0168 29.7756 21.6876C30.4301 22.3422 31.2903 22.6938 32.2099 22.6938C32.2424 22.6938 32.2802 22.6938 32.3127 22.6938C32.4858 22.6938 32.6265 22.5477 32.6319 22.3746C32.6589 21.4171 32.2965 20.5137 31.6203 19.8375C30.9495 19.1721 30.0244 18.7988 29.0831 18.8313Z" fill="#DEF81C"/>
<path d="M24.2739 9.83537C24.3118 9.83537 24.3551 9.82455 24.3875 9.80291C24.9177 9.46751 25.2909 8.92114 25.4099 8.30443C25.529 7.68232 25.3937 7.04939 25.0259 6.53547C24.9609 6.4435 24.8311 6.41645 24.7337 6.47596C24.1982 6.81677 23.8357 7.34692 23.7113 7.97444C23.5923 8.59114 23.7329 9.2349 24.0954 9.74341C24.1387 9.80291 24.2036 9.83537 24.2739 9.83537Z" fill="#DEF81C"/>
<path d="M29.186 14.8442C28.591 14.6387 27.9364 14.6874 27.3792 14.9795C27.2764 15.0336 27.2331 15.158 27.2818 15.2608C27.5415 15.8342 28.0284 16.2778 28.6234 16.478C28.8669 16.5645 29.1211 16.6024 29.37 16.6024C29.7324 16.6024 30.0949 16.5158 30.4303 16.3373C30.533 16.2832 30.5763 16.1588 30.5276 16.056C30.2626 15.4772 29.7865 15.0444 29.186 14.8388V14.8442Z" fill="#DEF81C"/>
<path d="M2.53815 8.59083C3.14404 8.94246 3.83107 9.12098 4.52351 9.12098C4.90219 9.12098 5.28086 9.06688 5.64872 8.95869C5.83806 8.90459 5.95166 8.70443 5.90838 8.51509C5.65954 7.46021 4.97251 6.54597 4.03664 6.005C3.08453 5.45321 1.98096 5.32338 0.92607 5.63714C0.736731 5.69124 0.623128 5.8914 0.666406 6.08074C0.920661 7.15185 1.58605 8.04445 2.53815 8.59083Z" fill="#DEF81C"/>
<path d="M3.40854 15.9316C4.48507 15.9208 5.52373 15.461 6.25944 14.6766C6.39469 14.5305 6.38928 14.3087 6.25944 14.1627C5.51832 13.3945 4.48507 12.9563 3.41936 12.9563C3.40854 12.9563 3.39772 12.9563 3.3869 12.9563C2.29415 12.9671 1.28254 13.4107 0.536002 14.2168C0.40076 14.3628 0.40076 14.5846 0.536002 14.7307C1.28795 15.5097 2.29415 15.937 3.37067 15.937C3.38149 15.937 3.39772 15.937 3.40854 15.937V15.9316Z" fill="#DEF81C"/>
<path d="M10.717 6.43228C10.7494 6.43769 10.7765 6.4431 10.8089 6.4431C10.9712 6.4431 11.1173 6.34032 11.166 6.17803C11.4851 5.15019 11.3607 4.01957 10.8306 3.07828C10.295 2.12618 9.41324 1.45538 8.34753 1.19571C8.15278 1.14703 7.95803 1.26063 7.90394 1.44997C7.58477 2.49404 7.70378 3.59761 8.23934 4.54972C8.76949 5.491 9.6729 6.17803 10.7224 6.43228H10.717Z" fill="#DEF81C"/>
<path d="M4.31793 10.5593C4.22597 10.6296 4.20974 10.7594 4.27465 10.8568C4.64251 11.3761 5.18889 11.7115 5.82182 11.8035C5.93002 11.8197 6.03821 11.8251 6.14641 11.8251C6.66032 11.8251 7.16883 11.652 7.57456 11.3274C7.66652 11.2571 7.68275 11.1273 7.61784 11.0299C7.25539 10.516 6.69278 10.1698 6.07067 10.0832C5.44315 9.99124 4.82103 10.1589 4.31793 10.5538V10.5593Z" fill="#DEF81C"/>
<path d="M8.69381 9.16953C8.69381 9.16953 8.70463 9.16953 8.71545 9.16953C8.82364 9.16953 8.9156 9.0938 8.93183 8.9856C9.0238 8.36349 8.85069 7.72515 8.4666 7.23287C8.07169 6.73518 7.50909 6.42682 6.87616 6.36732C6.76255 6.35109 6.65977 6.43764 6.64354 6.55125C6.55157 7.17877 6.71927 7.80088 7.10877 8.30398C7.49827 8.79626 8.0771 9.11002 8.70463 9.16953H8.69381Z" fill="#DEF81C"/>
<path d="M5.48583 17.9334C4.92864 17.6467 4.26866 17.6088 3.679 17.8144C3.07853 18.0253 2.60789 18.4635 2.34822 19.0478C2.29953 19.1505 2.34822 19.275 2.451 19.3291C2.78099 19.4968 3.13262 19.5779 3.48966 19.5779C3.74933 19.5779 4.00899 19.5346 4.26325 19.4427C4.8529 19.2317 5.33977 18.7827 5.58862 18.2093C5.63731 18.1065 5.58862 17.9821 5.49124 17.928L5.48583 17.9334Z" fill="#DEF81C"/>
<path d="M13.6007 3.87889C13.6386 3.90053 13.6764 3.91135 13.7197 3.91135C13.7846 3.91135 13.855 3.87889 13.8928 3.82479C14.2607 3.31628 14.4122 2.67253 14.2986 2.05582C14.185 1.4283 13.8279 0.892744 13.2924 0.546524C13.195 0.481608 13.0651 0.508657 13.0002 0.600621C12.627 1.11454 12.4809 1.74206 12.5945 2.36959C12.7081 2.98629 13.076 3.53808 13.6007 3.87889Z" fill="#DEF81C"/>
<path d="M9.24043 19.1561C9.24043 18.983 9.09436 18.8423 8.92125 18.8369C7.97456 18.8045 7.04951 19.1777 6.38412 19.8431C5.70791 20.5193 5.34546 21.4173 5.37251 22.3803C5.37251 22.5534 5.51857 22.694 5.69168 22.6994C5.72413 22.6994 5.762 22.6994 5.79446 22.6994C6.71411 22.6994 7.57424 22.3424 8.22882 21.6932C8.89962 21.0278 9.26747 20.1028 9.24043 19.1561Z" fill="#DEF81C"/>
<path d="M16.5379 6.51877C17.3656 6.06977 17.9823 5.28536 18.2257 4.37113C18.4745 3.44607 18.3339 2.48856 17.8308 1.6717C17.7388 1.52564 17.5495 1.47154 17.398 1.5581C16.5541 2.01792 15.9536 2.77527 15.7102 3.70574C15.4668 4.61997 15.6128 5.60454 16.1051 6.40517C16.1646 6.50254 16.2728 6.56205 16.381 6.56205C16.4351 6.56205 16.4892 6.55123 16.5379 6.52418V6.51877Z" fill="#DEF81C"/>
<path d="M10.6304 14.9901C10.0732 14.698 9.41866 14.6493 8.82359 14.8549C8.22312 15.0604 7.74707 15.4932 7.48199 16.072C7.4333 16.1748 7.48199 16.2993 7.57937 16.3533C7.91477 16.5265 8.27722 16.6184 8.63966 16.6184C8.88851 16.6184 9.14276 16.5751 9.3862 16.494C9.98126 16.2884 10.4681 15.8448 10.7278 15.2768C10.7765 15.174 10.7278 15.0496 10.6304 14.9955V14.9901Z" fill="#DEF81C"/>
<path d="M13.2752 6.48124C13.1778 6.42174 13.048 6.44337 12.9831 6.54075C12.6152 7.06008 12.4746 7.6876 12.599 8.30971C12.718 8.92642 13.0913 9.4728 13.6214 9.8082C13.6593 9.82983 13.6972 9.84065 13.735 9.84065C13.8053 9.84065 13.8703 9.8082 13.9135 9.74869C14.276 9.24018 14.4166 8.59102 14.2976 7.97972C14.1786 7.35761 13.8108 6.82205 13.2752 6.48124Z" fill="#DEF81C"/>
<path d="M66.036 11.936L62.526 24.5H59.556L57.198 15.554L54.732 24.5L51.78 24.518L48.396 11.936H51.096L53.31 21.692L55.866 11.936H58.674L61.086 21.638L63.318 11.936H66.036ZM72.0735 11.936C73.3935 11.936 74.5515 12.194 75.5475 12.71C76.5555 13.226 77.3295 13.964 77.8695 14.924C78.4215 15.872 78.6975 16.976 78.6975 18.236C78.6975 19.496 78.4215 20.6 77.8695 21.548C77.3295 22.484 76.5555 23.21 75.5475 23.726C74.5515 24.242 73.3935 24.5 72.0735 24.5H67.6815V11.936H72.0735ZM71.9835 22.358C73.3035 22.358 74.3235 21.998 75.0435 21.278C75.7635 20.558 76.1235 19.544 76.1235 18.236C76.1235 16.928 75.7635 15.908 75.0435 15.176C74.3235 14.432 73.3035 14.06 71.9835 14.06H70.2015V22.358H71.9835ZM87.7118 18.056C88.4198 18.188 89.0018 18.542 89.4578 19.118C89.9138 19.694 90.1418 20.354 90.1418 21.098C90.1418 21.77 89.9738 22.364 89.6378 22.88C89.3138 23.384 88.8398 23.78 88.2158 24.068C87.5918 24.356 86.8538 24.5 86.0018 24.5H80.5838V11.936H85.7678C86.6198 11.936 87.3518 12.074 87.9638 12.35C88.5878 12.626 89.0558 13.01 89.3678 13.502C89.6918 13.994 89.8538 14.552 89.8538 15.176C89.8538 15.908 89.6558 16.52 89.2598 17.012C88.8758 17.504 88.3598 17.852 87.7118 18.056ZM83.1038 17.12H85.4078C86.0078 17.12 86.4698 16.988 86.7938 16.724C87.1178 16.448 87.2798 16.058 87.2798 15.554C87.2798 15.05 87.1178 14.66 86.7938 14.384C86.4698 14.108 86.0078 13.97 85.4078 13.97H83.1038V17.12ZM85.6418 22.448C86.2538 22.448 86.7278 22.304 87.0638 22.016C87.4118 21.728 87.5858 21.32 87.5858 20.792C87.5858 20.252 87.4058 19.832 87.0458 19.532C86.6858 19.22 86.1998 19.064 85.5878 19.064H83.1038V22.448H85.6418Z" fill="white"/>
</svg>
